<svg width="32" height="48" viewBox="0 0 16 24" fill="none" xmlns="http://www.w3.org/2000/svg">

<style>
	path {
		fill: #000000
	}
	@media (prefers-color-scheme: dark){
		path {
			fill: #ffffff
		}
	}
</style>

<path d="M1.35294 8.52941H2.52941V9.70588H1.35294V8.52941ZM1.35294 9.70588H2.52941V10.8824H1.35294V9.70588ZM1.35294 10.8824H2.52941V12.0588H1.35294V10.8824ZM1.35294 12.0588H2.52941V13.2353H1.35294V12.0588ZM1.35294 13.2353H2.52941V14.4118H1.35294V13.2353ZM0.176471 13.2353H1.35294V14.4118H0.176471V13.2353ZM0.176471 12.0588H1.35294V13.2353H0.176471V12.0588ZM0.176471 10.8824H1.35294V12.0588H0.176471V10.8824ZM0.176471 9.70588H1.35294V10.8824H0.176471V9.70588ZM0.176471 8.52941H1.35294V9.70588H0.176471V8.52941ZM0.176471 20.2941H1.35294V21.4706H0.176471V20.2941ZM0.176471 19.1176H1.35294V20.2941H0.176471V19.1176ZM0.176471 17.9412H1.35294V19.1176H0.176471V17.9412ZM0.176471 16.7647H1.35294V17.9412H0.176471V16.7647ZM1.35294 15.5882H2.52941V16.7647H1.35294V15.5882ZM1.35294 14.4118H2.52941V15.5882H1.35294V14.4118ZM0.176471 14.4118H1.35294V15.5882H0.176471V14.4118ZM0.176471 15.5882H1.35294V16.7647H0.176471V15.5882ZM0.176471 21.4706H1.35294V22.6471H0.176471V21.4706ZM0.176471 22.6471H1.35294V23.8235H0.176471V22.6471ZM0.176471 23.8235H1.35294V25H0.176471V23.8235ZM3.70588 8.52941H4.88235V9.70588H3.70588V8.52941ZM3.70588 9.70588H4.88235V10.8824H3.70588V9.70588ZM3.70588 10.8824H4.88235V12.0588H3.70588V10.8824ZM3.70588 12.0588H4.88235V13.2353H3.70588V12.0588ZM3.70588 13.2353H4.88235V14.4118H3.70588V13.2353ZM3.70588 14.4118H4.88235V15.5882H3.70588V14.4118ZM3.70588 15.5882H4.88235V16.7647H3.70588V15.5882ZM3.70588 16.7647H4.88235V17.9412H3.70588V16.7647ZM3.70588 17.9412H4.88235V19.1176H3.70588V17.9412ZM3.70588 19.1176H4.88235V20.2941H3.70588V19.1176ZM3.70588 20.2941H4.88235V21.4706H3.70588V20.2941ZM3.70588 21.4706H4.88235V22.6471H3.70588V21.4706ZM3.70588 22.6471H4.88235V23.8235H3.70588V22.6471ZM3.70588 23.8235H4.88235V25H3.70588V23.8235ZM2.52941 23.8235H3.70588V25H2.52941V23.8235ZM1.35294 23.8235H2.52941V25H1.35294V23.8235ZM1.35294 22.6471H2.52941V23.8235H1.35294V22.6471ZM2.52941 22.6471H3.70588V23.8235H2.52941V22.6471ZM2.52941 21.4706H3.70588V22.6471H2.52941V21.4706ZM1.35294 20.2941H2.52941V21.4706H1.35294V20.2941ZM1.35294 19.1176H2.52941V20.2941H1.35294V19.1176ZM1.35294 17.9412H2.52941V19.1176H1.35294V17.9412ZM2.52941 17.9412H3.70588V19.1176H2.52941V17.9412ZM2.52941 19.1176H3.70588V20.2941H2.52941V19.1176ZM2.52941 20.2941H3.70588V21.4706H2.52941V20.2941ZM1.35294 21.4706H2.52941V22.6471H1.35294V21.4706ZM2.52941 16.7647H3.70588V17.9412H2.52941V16.7647ZM2.52941 15.5882H3.70588V16.7647H2.52941V15.5882ZM2.52941 14.4118H3.70588V15.5882H2.52941V14.4118ZM1.35294 16.7647H2.52941V17.9412H1.35294V16.7647ZM2.52941 13.2353H3.70588V14.4118H2.52941V13.2353ZM2.52941 12.0588H3.70588V13.2353H2.52941V12.0588ZM2.52941 10.8824H3.70588V12.0588H2.52941V10.8824ZM2.52941 9.70588H3.70588V10.8824H2.52941V9.70588ZM2.52941 8.52941H3.70588V9.70588H2.52941V8.52941ZM3.70588 1.47059H4.88235V2.64706H3.70588V1.47059ZM2.52941 2.64706H3.70588V3.82353H2.52941V2.64706ZM2.52941 0.294118H3.70588V1.47059H2.52941V0.294118ZM1.35294 1.47059H2.52941V2.64706H1.35294V1.47059ZM2.52941 1.47059H3.70588V2.64706H2.52941V1.47059ZM1.35294 0.294118H2.52941V1.47059H1.35294V0.294118ZM1.35294 2.64706H2.52941V3.82353H1.35294V2.64706ZM3.70588 2.64706H4.88235V3.82353H3.70588V2.64706ZM0.176471 1.47059H1.35294V2.64706H0.176471V1.47059ZM0.176471 2.64706H1.35294V3.82353H0.176471V2.64706ZM1.35294 3.82353H2.52941V5H1.35294V3.82353ZM2.52941 3.82353H3.70588V5H2.52941V3.82353ZM0.176471 0.294118H1.35294V1.47059H0.176471V0.294118ZM3.70588 0.294118H4.88235V1.47059H3.70588V0.294118ZM3.70588 3.82353H4.88235V5H3.70588V3.82353ZM0.176471 3.82353H1.35294V5H0.176471V3.82353ZM9.59513 9.70588H8.41866V8.52941H9.59513V9.70588ZM10.7716 9.70588H9.59513V8.52941H10.7716V9.70588ZM11.9481 8.52941H10.7716V7.35294H11.9481V8.52941ZM10.7716 8.52941H9.59513V7.35294H10.7716V8.52941ZM10.7716 7.35294H9.59513V6.17647H10.7716V7.35294ZM11.9481 7.35294H10.7716V6.17647H11.9481V7.35294ZM13.1245 7.35294H11.9481V6.17647H13.1245V7.35294ZM13.1245 6.17647H11.9481V5H13.1245V6.17647ZM13.1245 5H11.9481V3.82353H13.1245V5ZM13.1245 3.82353H11.9481V2.64706H13.1245V3.82353ZM13.1245 2.64706H11.9481V1.47059H13.1245V2.64706ZM11.9481 2.64706H10.7716V1.47059H11.9481V2.64706ZM10.7716 2.64706H9.59513V1.47059H10.7716V2.64706ZM9.59513 3.82353H8.41866V2.64706H9.59513V3.82353ZM9.59513 5H8.41866V3.82353H9.59513V5ZM9.59513 6.17647H8.41866V5H9.59513V6.17647ZM9.59513 2.64706H8.41866V1.47059H9.59513V2.64706ZM10.7716 5H9.59513V3.82353H10.7716V5ZM11.9481 5H10.7716V3.82353H11.9481V5ZM11.9481 6.17647H10.7716V5H11.9481V6.17647ZM10.7716 6.17647H9.59513V5H10.7716V6.17647ZM11.9481 3.82353H10.7716V2.64706H11.9481V3.82353ZM10.7716 3.82353H9.59513V2.64706H10.7716V3.82353ZM16.6608 7.35294H17.8373V8.52941H16.6608V7.35294ZM17.8373 7.35294H19.0138V8.52941H17.8373V7.35294ZM19.0138 7.35294H20.1903V8.52941H19.0138V7.35294ZM16.6608 9.70588H17.8373V10.8824H16.6608V9.70588ZM16.6608 8.52941H17.8373V9.70588H16.6608V8.52941ZM19.0138 23.8235H20.1903V25H19.0138V23.8235ZM17.8373 23.8235H19.0138V25H17.8373V23.8235ZM16.6608 22.6471H17.8373V23.8235H16.6608V22.6471ZM16.6608 21.4706H17.8373V22.6471H16.6608V21.4706ZM16.6608 23.8235H17.8373V25H16.6608V23.8235ZM22.5432 7.35294H23.7197V8.52941H22.5432V7.35294ZM20.1903 7.35294H21.3667V8.52941H20.1903V7.35294ZM24.8961 7.35294H26.0726V8.52941H24.8961V7.35294ZM26.0726 8.52941H27.2491V9.70588H26.0726V8.52941ZM24.8961 8.52941H26.0726V9.70588H24.8961V8.52941ZM24.8961 9.70588H26.0726V10.8824H24.8961V9.70588ZM27.2491 9.70588H28.4256V10.8824H27.2491V9.70588ZM26.0726 9.70588H27.2491V10.8824H26.0726V9.70588ZM24.8961 10.8824H26.0726V12.0588H24.8961V10.8824ZM23.7197 10.8824H24.8961V12.0588H23.7197V10.8824ZM26.0726 10.8824H27.2491V12.0588H26.0726V10.8824ZM27.2491 10.8824H28.4256V12.0588H27.2491V10.8824ZM28.4256 12.0588H29.602V13.2353H28.4256V12.0588ZM28.4256 13.2353H29.602V14.4118H28.4256V13.2353ZM28.4256 14.4118H29.602V15.5882H28.4256V14.4118ZM28.4256 15.5882H29.602V16.7647H28.4256V15.5882ZM28.4256 16.7647H29.602V17.9412H28.4256V16.7647ZM28.4256 17.9412H29.602V19.1176H28.4256V17.9412ZM28.4256 19.1176H29.602V20.2941H28.4256V19.1176ZM28.4256 20.2941H29.602V21.4706H28.4256V20.2941ZM27.2491 20.2941H28.4256V21.4706H27.2491V20.2941ZM27.2491 21.4706H28.4256V22.6471H27.2491V21.4706ZM27.2491 22.6471H28.4256V23.8235H27.2491V22.6471ZM26.0726 22.6471H27.2491V23.8235H26.0726V22.6471ZM24.8961 22.6471H26.0726V23.8235H24.8961V22.6471ZM24.8961 20.2941H26.0726V21.4706H24.8961V20.2941ZM24.8961 21.4706H26.0726V22.6471H24.8961V21.4706ZM26.0726 21.4706H27.2491V22.6471H26.0726V21.4706ZM26.0726 20.2941H27.2491V21.4706H26.0726V20.2941ZM26.0726 19.1176H27.2491V20.2941H26.0726V19.1176ZM24.8961 19.1176H26.0726V20.2941H24.8961V19.1176ZM24.8961 17.9412H26.0726V19.1176H24.8961V17.9412ZM24.8961 16.7647H26.0726V17.9412H24.8961V16.7647ZM24.8961 15.5882H26.0726V16.7647H24.8961V15.5882ZM24.8961 14.4118H26.0726V15.5882H24.8961V14.4118ZM24.8961 13.2353H26.0726V14.4118H24.8961V13.2353ZM24.8961 12.0588H26.0726V13.2353H24.8961V12.0588ZM26.0726 12.0588H27.2491V13.2353H26.0726V12.0588ZM26.0726 13.2353H27.2491V14.4118H26.0726V13.2353ZM26.0726 14.4118H27.2491V15.5882H26.0726V14.4118ZM26.0726 15.5882H27.2491V16.7647H26.0726V15.5882ZM26.0726 16.7647H27.2491V17.9412H26.0726V16.7647ZM26.0726 17.9412H27.2491V19.1176H26.0726V17.9412ZM27.2491 19.1176H28.4256V20.2941H27.2491V19.1176ZM27.2491 17.9412H28.4256V19.1176H27.2491V17.9412ZM27.2491 16.7647H28.4256V17.9412H27.2491V16.7647ZM27.2491 15.5882H28.4256V16.7647H27.2491V15.5882ZM27.2491 14.4118H28.4256V15.5882H27.2491V14.4118ZM27.2491 13.2353H28.4256V14.4118H27.2491V13.2353ZM27.2491 12.0588H28.4256V13.2353H27.2491V12.0588ZM24.8961 23.8235H26.0726V25H24.8961V23.8235ZM20.1903 23.8235H21.3667V25H20.1903V23.8235ZM20.1903 22.6471H21.3667V23.8235H20.1903V22.6471ZM19.0138 22.6471H20.1903V23.8235H19.0138V22.6471ZM17.8373 22.6471H19.0138V23.8235H17.8373V22.6471ZM17.8373 13.2353H19.0138V14.4118H17.8373V13.2353ZM17.8373 12.0588H19.0138V13.2353H17.8373V12.0588ZM16.6608 10.8824H17.8373V12.0588H16.6608V10.8824ZM17.8373 9.70588H19.0138V10.8824H17.8373V9.70588ZM19.0138 8.52941H20.1903V9.70588H19.0138V8.52941ZM20.1903 8.52941H21.3667V9.70588H20.1903V8.52941ZM21.3667 8.52941H22.5432V9.70588H21.3667V8.52941ZM21.3667 9.70588H22.5432V10.8824H21.3667V9.70588ZM21.3667 10.8824H22.5432V12.0588H21.3667V10.8824ZM20.1903 10.8824H21.3667V12.0588H20.1903V10.8824ZM19.0138 10.8824H20.1903V12.0588H19.0138V10.8824ZM20.1903 12.0588H21.3667V13.2353H20.1903V12.0588ZM20.1903 13.2353H21.3667V14.4118H20.1903V13.2353ZM20.1903 14.4118H21.3667V15.5882H20.1903V14.4118ZM20.1903 21.4706H21.3667V22.6471H20.1903V21.4706ZM19.0138 21.4706H20.1903V22.6471H19.0138V21.4706ZM19.0138 13.2353H20.1903V14.4118H19.0138V13.2353ZM19.0138 12.0588H20.1903V13.2353H19.0138V12.0588ZM19.0138 9.70588H20.1903V10.8824H19.0138V9.70588ZM20.1903 9.70588H21.3667V10.8824H20.1903V9.70588ZM22.5432 8.52941H23.7197V9.70588H22.5432V8.52941ZM23.7197 8.52941H24.8961V9.70588H23.7197V8.52941ZM23.7197 9.70588H24.8961V10.8824H23.7197V9.70588ZM22.5432 9.70588H23.7197V10.8824H22.5432V9.70588ZM17.8373 8.52941H19.0138V9.70588H17.8373V8.52941ZM17.8373 21.4706H19.0138V22.6471H17.8373V21.4706ZM17.8373 10.8824H19.0138V12.0588H17.8373V10.8824ZM16.6608 12.0588H17.8373V13.2353H16.6608V12.0588ZM16.6608 13.2353H17.8373V14.4118H16.6608V13.2353ZM16.6608 20.2941H17.8373V21.4706H16.6608V20.2941ZM17.8373 20.2941H19.0138V21.4706H17.8373V20.2941ZM19.0138 20.2941H20.1903V21.4706H19.0138V20.2941ZM20.1903 20.2941H21.3667V21.4706H20.1903V20.2941ZM19.0138 14.4118H20.1903V15.5882H19.0138V14.4118ZM17.8373 14.4118H19.0138V15.5882H17.8373V14.4118ZM16.6608 14.4118H17.8373V15.5882H16.6608V14.4118ZM16.6608 15.5882H17.8373V16.7647H16.6608V15.5882ZM16.6608 16.7647H17.8373V17.9412H16.6608V16.7647ZM16.6608 17.9412H17.8373V19.1176H16.6608V17.9412ZM17.8373 17.9412H19.0138V19.1176H17.8373V17.9412ZM17.8373 19.1176H19.0138V20.2941H17.8373V19.1176ZM19.0138 19.1176H20.1903V20.2941H19.0138V19.1176ZM16.6608 19.1176H17.8373V20.2941H16.6608V19.1176ZM20.1903 19.1176H21.3667V20.2941H20.1903V19.1176ZM20.1903 17.9412H21.3667V19.1176H20.1903V17.9412ZM20.1903 16.7647H21.3667V17.9412H20.1903V16.7647ZM20.1903 15.5882H21.3667V16.7647H20.1903V15.5882ZM19.0138 15.5882H20.1903V16.7647H19.0138V15.5882ZM17.8373 15.5882H19.0138V16.7647H17.8373V15.5882ZM17.8373 16.7647H19.0138V17.9412H17.8373V16.7647ZM19.0138 17.9412H20.1903V19.1176H19.0138V17.9412ZM19.0138 16.7647H20.1903V17.9412H19.0138V16.7647ZM26.0726 23.8235H27.2491V25H26.0726V23.8235ZM27.2491 23.8235H28.4256V25H27.2491V23.8235ZM28.4256 23.8235H29.602V25H28.4256V23.8235ZM28.4256 22.6471H29.602V23.8235H28.4256V22.6471ZM28.4256 21.4706H29.602V22.6471H28.4256V21.4706ZM29.602 7.35294H30.7785V8.52941H29.602V7.35294ZM30.7785 7.35294H31.955V8.52941H30.7785V7.35294ZM31.955 7.35294H33.1314V8.52941H31.955V7.35294ZM33.1314 7.35294H34.3079V8.52941H33.1314V7.35294ZM34.3079 8.52941H35.4844V9.70588H34.3079V8.52941ZM33.1314 8.52941H34.3079V9.70588H33.1314V8.52941ZM33.1314 9.70588H34.3079V10.8824H33.1314V9.70588ZM35.4844 8.52941H36.6608V9.70588H35.4844V8.52941ZM35.4844 9.70588H36.6608V10.8824H35.4844V9.70588ZM34.3079 9.70588H35.4844V10.8824H34.3079V9.70588ZM33.1314 10.8824H34.3079V12.0588H33.1314V10.8824ZM31.955 10.8824H33.1314V12.0588H31.955V10.8824ZM34.3079 10.8824H35.4844V12.0588H34.3079V10.8824ZM35.4844 10.8824H36.6608V12.0588H35.4844V10.8824ZM36.6608 10.8824H37.8373V12.0588H36.6608V10.8824ZM36.6608 12.0588H37.8373V13.2353H36.6608V12.0588ZM36.6608 13.2353H37.8373V14.4118H36.6608V13.2353ZM36.6608 14.4118H37.8373V15.5882H36.6608V14.4118ZM36.6608 15.5882H37.8373V16.7647H36.6608V15.5882ZM36.6608 16.7647H37.8373V17.9412H36.6608V16.7647ZM36.6608 17.9412H37.8373V19.1176H36.6608V17.9412ZM36.6608 19.1176H37.8373V20.2941H36.6608V19.1176ZM36.6608 20.2941H37.8373V21.4706H36.6608V20.2941ZM35.4844 20.2941H36.6608V21.4706H35.4844V20.2941ZM35.4844 21.4706H36.6608V22.6471H35.4844V21.4706ZM35.4844 22.6471H36.6608V23.8235H35.4844V22.6471ZM34.3079 22.6471H35.4844V23.8235H34.3079V22.6471ZM33.1314 22.6471H34.3079V23.8235H33.1314V22.6471ZM33.1314 20.2941H34.3079V21.4706H33.1314V20.2941ZM33.1314 21.4706H34.3079V22.6471H33.1314V21.4706ZM34.3079 21.4706H35.4844V22.6471H34.3079V21.4706ZM34.3079 20.2941H35.4844V21.4706H34.3079V20.2941ZM34.3079 19.1176H35.4844V20.2941H34.3079V19.1176ZM33.1314 19.1176H34.3079V20.2941H33.1314V19.1176ZM33.1314 17.9412H34.3079V19.1176H33.1314V17.9412ZM33.1314 16.7647H34.3079V17.9412H33.1314V16.7647ZM33.1314 15.5882H34.3079V16.7647H33.1314V15.5882ZM33.1314 14.4118H34.3079V15.5882H33.1314V14.4118ZM33.1314 13.2353H34.3079V14.4118H33.1314V13.2353ZM33.1314 12.0588H34.3079V13.2353H33.1314V12.0588ZM34.3079 12.0588H35.4844V13.2353H34.3079V12.0588ZM34.3079 13.2353H35.4844V14.4118H34.3079V13.2353ZM34.3079 14.4118H35.4844V15.5882H34.3079V14.4118ZM34.3079 15.5882H35.4844V16.7647H34.3079V15.5882ZM34.3079 16.7647H35.4844V17.9412H34.3079V16.7647ZM34.3079 17.9412H35.4844V19.1176H34.3079V17.9412ZM35.4844 19.1176H36.6608V20.2941H35.4844V19.1176ZM35.4844 17.9412H36.6608V19.1176H35.4844V17.9412ZM35.4844 16.7647H36.6608V17.9412H35.4844V16.7647ZM35.4844 15.5882H36.6608V16.7647H35.4844V15.5882ZM35.4844 14.4118H36.6608V15.5882H35.4844V14.4118ZM35.4844 13.2353H36.6608V14.4118H35.4844V13.2353ZM35.4844 12.0588H36.6608V13.2353H35.4844V12.0588ZM33.1314 23.8235H34.3079V25H33.1314V23.8235ZM28.4256 8.52941H29.602V9.70588H28.4256V8.52941ZM28.4256 9.70588H29.602V10.8824H28.4256V9.70588ZM28.4256 10.8824H29.602V12.0588H28.4256V10.8824ZM29.602 8.52941H30.7785V9.70588H29.602V8.52941ZM30.7785 8.52941H31.955V9.70588H30.7785V8.52941ZM31.955 8.52941H33.1314V9.70588H31.955V8.52941ZM31.955 9.70588H33.1314V10.8824H31.955V9.70588ZM30.7785 9.70588H31.955V10.8824H30.7785V9.70588ZM29.602 9.70588H30.7785V10.8824H29.602V9.70588ZM34.3079 23.8235H35.4844V25H34.3079V23.8235ZM35.4844 23.8235H36.6608V25H35.4844V23.8235ZM36.6608 23.8235H37.8373V25H36.6608V23.8235ZM36.6608 22.6471H37.8373V23.8235H36.6608V22.6471ZM36.6608 21.4706H37.8373V22.6471H36.6608V21.4706ZM23.7197 7.35294H24.8961V8.52941H23.7197V7.35294ZM29.602 10.8824H30.7785V12.0588H29.602V10.8824Z" fill="white"/>
</svg>