<svg width="14" height="25" viewBox="0 0 14 25" fill="none" xmlns="http://www.w3.org/2000/svg">
<style>
	path {
		fill: #000000
	}
	@media (prefers-color-scheme: dark){
		path {
			fill: #ffffff
		}
	}
</style>
<path d="M1.35294 8.52941H2.52941V9.70588H1.35294V8.52941ZM1.35294 9.70588H2.52941V10.8824H1.35294V9.70588ZM1.35294 10.8824H2.52941V12.0588H1.35294V10.8824ZM1.35294 12.0588H2.52941V13.2353H1.35294V12.0588ZM1.35294 13.2353H2.52941V14.4118H1.35294V13.2353ZM0.176471 13.2353H1.35294V14.4118H0.176471V13.2353ZM0.176471 12.0588H1.35294V13.2353H0.176471V12.0588ZM0.176471 10.8824H1.35294V12.0588H0.176471V10.8824ZM0.176471 9.70588H1.35294V10.8824H0.176471V9.70588ZM0.176471 8.52941H1.35294V9.70588H0.176471V8.52941ZM0.176471 20.2941H1.35294V21.4706H0.176471V20.2941ZM0.176471 19.1176H1.35294V20.2941H0.176471V19.1176ZM0.176471 17.9412H1.35294V19.1176H0.176471V17.9412ZM0.176471 16.7647H1.35294V17.9412H0.176471V16.7647ZM1.35294 15.5882H2.52941V16.7647H1.35294V15.5882ZM1.35294 14.4118H2.52941V15.5882H1.35294V14.4118ZM0.176471 14.4118H1.35294V15.5882H0.176471V14.4118ZM0.176471 15.5882H1.35294V16.7647H0.176471V15.5882ZM0.176471 21.4706H1.35294V22.6471H0.176471V21.4706ZM0.176471 22.6471H1.35294V23.8235H0.176471V22.6471ZM0.176471 23.8235H1.35294V25H0.176471V23.8235ZM3.70588 8.52941H4.88235V9.70588H3.70588V8.52941ZM3.70588 9.70588H4.88235V10.8824H3.70588V9.70588ZM3.70588 10.8824H4.88235V12.0588H3.70588V10.8824ZM3.70588 12.0588H4.88235V13.2353H3.70588V12.0588ZM3.70588 13.2353H4.88235V14.4118H3.70588V13.2353ZM3.70588 14.4118H4.88235V15.5882H3.70588V14.4118ZM3.70588 15.5882H4.88235V16.7647H3.70588V15.5882ZM3.70588 16.7647H4.88235V17.9412H3.70588V16.7647ZM3.70588 17.9412H4.88235V19.1176H3.70588V17.9412ZM3.70588 19.1176H4.88235V20.2941H3.70588V19.1176ZM3.70588 20.2941H4.88235V21.4706H3.70588V20.2941ZM3.70588 21.4706H4.88235V22.6471H3.70588V21.4706ZM3.70588 22.6471H4.88235V23.8235H3.70588V22.6471ZM3.70588 23.8235H4.88235V25H3.70588V23.8235ZM2.52941 23.8235H3.70588V25H2.52941V23.8235ZM1.35294 23.8235H2.52941V25H1.35294V23.8235ZM1.35294 22.6471H2.52941V23.8235H1.35294V22.6471ZM2.52941 22.6471H3.70588V23.8235H2.52941V22.6471ZM2.52941 21.4706H3.70588V22.6471H2.52941V21.4706ZM1.35294 20.2941H2.52941V21.4706H1.35294V20.2941ZM1.35294 19.1176H2.52941V20.2941H1.35294V19.1176ZM1.35294 17.9412H2.52941V19.1176H1.35294V17.9412ZM2.52941 17.9412H3.70588V19.1176H2.52941V17.9412ZM2.52941 19.1176H3.70588V20.2941H2.52941V19.1176ZM2.52941 20.2941H3.70588V21.4706H2.52941V20.2941ZM1.35294 21.4706H2.52941V22.6471H1.35294V21.4706ZM2.52941 16.7647H3.70588V17.9412H2.52941V16.7647ZM2.52941 15.5882H3.70588V16.7647H2.52941V15.5882ZM2.52941 14.4118H3.70588V15.5882H2.52941V14.4118ZM1.35294 16.7647H2.52941V17.9412H1.35294V16.7647ZM2.52941 13.2353H3.70588V14.4118H2.52941V13.2353ZM2.52941 12.0588H3.70588V13.2353H2.52941V12.0588ZM2.52941 10.8824H3.70588V12.0588H2.52941V10.8824ZM2.52941 9.70588H3.70588V10.8824H2.52941V9.70588ZM2.52941 8.52941H3.70588V9.70588H2.52941V8.52941ZM3.70588 1.47059H4.88235V2.64706H3.70588V1.47059ZM2.52941 2.64706H3.70588V3.82353H2.52941V2.64706ZM2.52941 0.294118H3.70588V1.47059H2.52941V0.294118ZM1.35294 1.47059H2.52941V2.64706H1.35294V1.47059ZM2.52941 1.47059H3.70588V2.64706H2.52941V1.47059ZM1.35294 0.294118H2.52941V1.47059H1.35294V0.294118ZM1.35294 2.64706H2.52941V3.82353H1.35294V2.64706ZM3.70588 2.64706H4.88235V3.82353H3.70588V2.64706ZM0.176471 1.47059H1.35294V2.64706H0.176471V1.47059ZM0.176471 2.64706H1.35294V3.82353H0.176471V2.64706ZM1.35294 3.82353H2.52941V5H1.35294V3.82353ZM2.52941 3.82353H3.70588V5H2.52941V3.82353ZM0.176471 0.294118H1.35294V1.47059H0.176471V0.294118ZM3.70588 0.294118H4.88235V1.47059H3.70588V0.294118ZM3.70588 3.82353H4.88235V5H3.70588V3.82353ZM0.176471 3.82353H1.35294V5H0.176471V3.82353ZM9.59513 9.70588H8.41866V8.52941H9.59513V9.70588ZM10.7716 9.70588H9.59513V8.52941H10.7716V9.70588ZM11.9481 8.52941H10.7716V7.35294H11.9481V8.52941ZM10.7716 8.52941H9.59513V7.35294H10.7716V8.52941ZM10.7716 7.35294H9.59513V6.17647H10.7716V7.35294ZM11.9481 7.35294H10.7716V6.17647H11.9481V7.35294ZM13.1245 7.35294H11.9481V6.17647H13.1245V7.35294ZM13.1245 6.17647H11.9481V5H13.1245V6.17647ZM13.1245 5H11.9481V3.82353H13.1245V5ZM13.1245 3.82353H11.9481V2.64706H13.1245V3.82353ZM13.1245 2.64706H11.9481V1.47059H13.1245V2.64706ZM11.9481 2.64706H10.7716V1.47059H11.9481V2.64706ZM10.7716 2.64706H9.59513V1.47059H10.7716V2.64706ZM9.59513 3.82353H8.41866V2.64706H9.59513V3.82353ZM9.59513 5H8.41866V3.82353H9.59513V5ZM9.59513 6.17647H8.41866V5H9.59513V6.17647ZM9.59513 2.64706H8.41866V1.47059H9.59513V2.64706ZM10.7716 5H9.59513V3.82353H10.7716V5ZM11.9481 5H10.7716V3.82353H11.9481V5ZM11.9481 6.17647H10.7716V5H11.9481V6.17647ZM10.7716 6.17647H9.59513V5H10.7716V6.17647ZM11.9481 3.82353H10.7716V2.64706H11.9481V3.82353ZM10.7716 3.82353H9.59513V2.64706H10.7716V3.82353Z" fill="white"/>
</svg>