<svg width="32" height="48" viewBox="0 0 16 24" fill="none" xmlns="http://www.w3.org/2000/svg">

<style>
	path {
		fill: #000000
	}
	@media (prefers-color-scheme: dark){
		path {
			fill: #ffffff
		}
	}
</style>

<path d="M0.176471 0.47059H1.35294V1.64706H0.176471V0.47059ZM1.35294 0.47059H2.52941V1.64706H1.35294V0.47059ZM2.52941 0.47059H3.70588V1.64706H2.52941V0.47059ZM3.70588 0.47059H4.88235V1.64706H3.70588V0.47059ZM3.70588 1.64706H4.88235V2.82353H3.70588V1.64706ZM3.70588 2.82353H4.88235V4H3.70588V2.82353ZM2.52941 2.82353H3.70588V4H2.52941V2.82353ZM1.35294 2.82353H2.52941V4H1.35294V2.82353ZM1.35294 1.64706H2.52941V2.82353H1.35294V1.64706ZM0.176471 1.64706H1.35294V2.82353H0.176471V1.64706ZM2.52941 1.64706H3.70588V2.82353H2.52941V1.64706ZM0.176471 2.82353H1.35294V4H0.176471V2.82353ZM0.176471 4H1.35294V5.17647H0.176471V4ZM0.176471 5.17647H1.35294V6.35294H0.176471V5.17647ZM1.35294 5.17647H2.52941V6.35294H1.35294V5.17647ZM2.52941 5.17647H3.70588V6.35294H2.52941V5.17647ZM3.70588 5.17647H4.88235V6.35294H3.70588V5.17647ZM3.70588 4H4.88235V5.17647H3.70588V4ZM2.52941 4H3.70588V5.17647H2.52941V4ZM1.35294 4H2.52941V5.17647H1.35294V4ZM0.176471 6.35294H1.35294V7.52941H0.176471V6.35294ZM1.35294 6.35294H2.52941V7.52941H1.35294V6.35294ZM2.52941 6.35294H3.70588V7.52941H2.52941V6.35294ZM0.176471 8.70588H1.35294V9.88235H0.176471V8.70588ZM0.176471 7.52941H1.35294V8.70588H0.176471V7.52941ZM2.52941 22.8235H3.70588V24H2.52941V22.8235ZM1.35294 22.8235H2.52941V24H1.35294V22.8235ZM0.176471 21.6471H1.35294V22.8235H0.176471V21.6471ZM0.176471 20.4706H1.35294V21.6471H0.176471V20.4706ZM0.176471 22.8235H1.35294V24H0.176471V22.8235ZM6.05882 6.35294H7.23529V7.52941H6.05882V6.35294ZM3.70588 6.35294H4.88235V7.52941H3.70588V6.35294ZM7.23529 6.35294H8.41176V7.52941H7.23529V6.35294ZM8.41176 6.35294H9.58823V7.52941H8.41176V6.35294ZM9.58823 6.35294H10.7647V7.52941H9.58823V6.35294ZM10.7647 6.35294H11.9412V7.52941H10.7647V6.35294ZM11.9412 7.52941H13.1176V8.70588H11.9412V7.52941ZM10.7647 7.52941H11.9412V8.70588H10.7647V7.52941ZM10.7647 8.70588H11.9412V9.88235H10.7647V8.70588ZM13.1176 7.52941H14.2941V8.70588H13.1176V7.52941ZM13.1176 8.70588H14.2941V9.88235H13.1176V8.70588ZM11.9412 8.70588H13.1176V9.88235H11.9412V8.70588ZM10.7647 9.88235H11.9412V11.0588H10.7647V9.88235ZM9.58823 9.88235H10.7647V11.0588H9.58823V9.88235ZM11.9412 9.88235H13.1176V11.0588H11.9412V9.88235ZM13.1176 9.88235H14.2941V11.0588H13.1176V9.88235ZM14.2941 9.88235H15.4706V11.0588H14.2941V9.88235ZM14.2941 11.0588H15.4706V12.2353H14.2941V11.0588ZM14.2941 12.2353H15.4706V13.4118H14.2941V12.2353ZM14.2941 13.4118H15.4706V14.5882H14.2941V13.4118ZM14.2941 14.5882H15.4706V15.7647H14.2941V14.5882ZM14.2941 15.7647H15.4706V16.9412H14.2941V15.7647ZM14.2941 16.9412H15.4706V18.1176H14.2941V16.9412ZM14.2941 18.1176H15.4706V19.2941H14.2941V18.1176ZM14.2941 19.2941H15.4706V20.4706H14.2941V19.2941ZM13.1176 19.2941H14.2941V20.4706H13.1176V19.2941ZM13.1176 20.4706H14.2941V21.6471H13.1176V20.4706ZM13.1176 21.6471H14.2941V22.8235H13.1176V21.6471ZM11.9412 21.6471H13.1176V22.8235H11.9412V21.6471ZM10.7647 21.6471H11.9412V22.8235H10.7647V21.6471ZM10.7647 19.2941H11.9412V20.4706H10.7647V19.2941ZM10.7647 20.4706H11.9412V21.6471H10.7647V20.4706ZM11.9412 20.4706H13.1176V21.6471H11.9412V20.4706ZM11.9412 19.2941H13.1176V20.4706H11.9412V19.2941ZM11.9412 18.1176H13.1176V19.2941H11.9412V18.1176ZM10.7647 18.1176H11.9412V19.2941H10.7647V18.1176ZM10.7647 16.9412H11.9412V18.1176H10.7647V16.9412ZM10.7647 15.7647H11.9412V16.9412H10.7647V15.7647ZM10.7647 14.5882H11.9412V15.7647H10.7647V14.5882ZM10.7647 13.4118H11.9412V14.5882H10.7647V13.4118ZM10.7647 12.2353H11.9412V13.4118H10.7647V12.2353ZM10.7647 11.0588H11.9412V12.2353H10.7647V11.0588ZM11.9412 11.0588H13.1176V12.2353H11.9412V11.0588ZM11.9412 12.2353H13.1176V13.4118H11.9412V12.2353ZM11.9412 13.4118H13.1176V14.5882H11.9412V13.4118ZM11.9412 14.5882H13.1176V15.7647H11.9412V14.5882ZM11.9412 15.7647H13.1176V16.9412H11.9412V15.7647ZM11.9412 16.9412H13.1176V18.1176H11.9412V16.9412ZM13.1176 18.1176H14.2941V19.2941H13.1176V18.1176ZM13.1176 16.9412H14.2941V18.1176H13.1176V16.9412ZM13.1176 15.7647H14.2941V16.9412H13.1176V15.7647ZM13.1176 14.5882H14.2941V15.7647H13.1176V14.5882ZM13.1176 13.4118H14.2941V14.5882H13.1176V13.4118ZM13.1176 12.2353H14.2941V13.4118H13.1176V12.2353ZM13.1176 11.0588H14.2941V12.2353H13.1176V11.0588ZM10.7647 22.8235H11.9412V24H10.7647V22.8235ZM3.70588 22.8235H4.88235V24H3.70588V22.8235ZM3.70588 21.6471H4.88235V22.8235H3.70588V21.6471ZM2.52941 21.6471H3.70588V22.8235H2.52941V21.6471ZM1.35294 21.6471H2.52941V22.8235H1.35294V21.6471ZM1.35294 12.2353H2.52941V13.4118H1.35294V12.2353ZM1.35294 11.0588H2.52941V12.2353H1.35294V11.0588ZM0.176471 9.88235H1.35294V11.0588H0.176471V9.88235ZM1.35294 8.70588H2.52941V9.88235H1.35294V8.70588ZM2.52941 7.52941H3.70588V8.70588H2.52941V7.52941ZM3.70588 7.52941H4.88235V8.70588H3.70588V7.52941ZM4.88235 7.52941H6.05882V8.70588H4.88235V7.52941ZM4.88235 8.70588H6.05882V9.88235H4.88235V8.70588ZM4.88235 9.88235H6.05882V11.0588H4.88235V9.88235ZM3.70588 9.88235H4.88235V11.0588H3.70588V9.88235ZM2.52941 9.88235H3.70588V11.0588H2.52941V9.88235ZM3.70588 11.0588H4.88235V12.2353H3.70588V11.0588ZM3.70588 12.2353H4.88235V13.4118H3.70588V12.2353ZM3.70588 13.4118H4.88235V14.5882H3.70588V13.4118ZM3.70588 20.4706H4.88235V21.6471H3.70588V20.4706ZM2.52941 20.4706H3.70588V21.6471H2.52941V20.4706ZM2.52941 12.2353H3.70588V13.4118H2.52941V12.2353ZM2.52941 11.0588H3.70588V12.2353H2.52941V11.0588ZM2.52941 8.70588H3.70588V9.88235H2.52941V8.70588ZM3.70588 8.70588H4.88235V9.88235H3.70588V8.70588ZM6.05882 7.52941H7.23529V8.70588H6.05882V7.52941ZM7.23529 7.52941H8.41176V8.70588H7.23529V7.52941ZM8.41176 7.52941H9.58823V8.70588H8.41176V7.52941ZM9.58823 7.52941H10.7647V8.70588H9.58823V7.52941ZM9.58823 8.70588H10.7647V9.88235H9.58823V8.70588ZM8.41176 8.70588H9.58823V9.88235H8.41176V8.70588ZM7.23529 8.70588H8.41176V9.88235H7.23529V8.70588ZM6.05882 8.70588H7.23529V9.88235H6.05882V8.70588ZM1.35294 7.52941H2.52941V8.70588H1.35294V7.52941ZM1.35294 20.4706H2.52941V21.6471H1.35294V20.4706ZM1.35294 9.88235H2.52941V11.0588H1.35294V9.88235ZM0.176471 11.0588H1.35294V12.2353H0.176471V11.0588ZM0.176471 12.2353H1.35294V13.4118H0.176471V12.2353ZM0.176471 19.2941H1.35294V20.4706H0.176471V19.2941ZM1.35294 19.2941H2.52941V20.4706H1.35294V19.2941ZM2.52941 19.2941H3.70588V20.4706H2.52941V19.2941ZM3.70588 19.2941H4.88235V20.4706H3.70588V19.2941ZM2.52941 13.4118H3.70588V14.5882H2.52941V13.4118ZM1.35294 13.4118H2.52941V14.5882H1.35294V13.4118ZM0.176471 13.4118H1.35294V14.5882H0.176471V13.4118ZM0.176471 14.5882H1.35294V15.7647H0.176471V14.5882ZM0.176471 15.7647H1.35294V16.9412H0.176471V15.7647ZM0.176471 16.9412H1.35294V18.1176H0.176471V16.9412ZM1.35294 16.9412H2.52941V18.1176H1.35294V16.9412ZM1.35294 18.1176H2.52941V19.2941H1.35294V18.1176ZM2.52941 18.1176H3.70588V19.2941H2.52941V18.1176ZM0.176471 18.1176H1.35294V19.2941H0.176471V18.1176ZM3.70588 18.1176H4.88235V19.2941H3.70588V18.1176ZM3.70588 16.9412H4.88235V18.1176H3.70588V16.9412ZM3.70588 15.7647H4.88235V16.9412H3.70588V15.7647ZM3.70588 14.5882H4.88235V15.7647H3.70588V14.5882ZM2.52941 14.5882H3.70588V15.7647H2.52941V14.5882ZM1.35294 14.5882H2.52941V15.7647H1.35294V14.5882ZM1.35294 15.7647H2.52941V16.9412H1.35294V15.7647ZM2.52941 16.9412H3.70588V18.1176H2.52941V16.9412ZM2.52941 15.7647H3.70588V16.9412H2.52941V15.7647ZM11.9412 22.8235H13.1176V24H11.9412V22.8235ZM13.1176 22.8235H14.2941V24H13.1176V22.8235ZM14.2941 22.8235H15.4706V24H14.2941V22.8235ZM14.2941 21.6471H15.4706V22.8235H14.2941V21.6471ZM14.2941 20.4706H15.4706V21.6471H14.2941V20.4706Z" fill="white"/>
</svg>
