<?xml version="1.0" encoding="UTF-8" standalone="no"?>
<!-- Uploaded to: SVG Repo, www.svgrepo.com, Generator: SVG Repo Mixer Tools -->

<svg
   width="666.66663"
   height="666.66663"
   viewBox="0 0 19.999999 19.999999"
   fill="none"
   version="1.1"
   id="svg4"
   xmlns="http://www.w3.org/2000/svg"
   xmlns:svg="http://www.w3.org/2000/svg">
  <defs
     id="defs8" />
  <path
     fill-rule="evenodd"
     clip-rule="evenodd"
     d="M 20,10 C 20,15.5228 15.5228,20 10,20 4.4771501,20 1.1920929e-7,15.5228 1.1920929e-7,10 1.1920929e-7,4.4771501 4.4771501,1.1920929e-7 10,1.1920929e-7 15.5228,1.1920929e-7 20,4.4771501 20,10 Z M 10.3583,7.3824401 c -0.9725999,0.40456 -2.9165299,1.24186 -5.8317299,2.51196 -0.47339,0.1882999 -0.72137,0.3724999 -0.74394,0.5524999 -0.03815,0.3044 0.34296,0.4242 0.86192,0.5874 0.0706,0.0222 0.14374,0.0452 0.21872,0.0695 0.51058,0.166 1.19741,0.3602 1.55446,0.3679 0.32388,0.007 0.68537,-0.1265 1.08446,-0.4006 C 10.226,9.2325001 11.632,8.3032001 11.7202,8.2831001 c 0.0623,-0.0141 0.1486,-0.0319 0.2071,0.0201 0.0585,0.052 0.0527,0.1504 0.0465,0.1768 -0.0377,0.161 -1.5337,1.5517999 -2.3078999,2.2714999 -0.2413,0.2244 -0.4125,0.3835 -0.4475,0.4199 -0.0784,0.0814 -0.1583,0.1584 -0.2351,0.2324 -0.4743,0.4573 -0.8301,0.8002 0.0197,1.3602 0.4084,0.2691 0.7351,0.4916 1.0610999,0.7136 0.356,0.2425 0.7111,0.4843 1.1706,0.7855 0.117,0.0767 0.2288,0.1564 0.3377,0.234 0.4143,0.2954 0.7865,0.5608 1.2464,0.5184 0.2672,-0.0245 0.5432,-0.2758 0.6834,-1.0252 0.3313,-1.771 0.9825,-5.6082999 1.133,-7.1894899 0.0132,-0.13853 -0.0034,-0.31583 -0.0167,-0.39366 -0.0134,-0.07783 -0.0412,-0.18873 -0.1424,-0.27082 -0.1198,-0.09722 -0.3047,-0.11772 -0.3875,-0.11633 -0.3761,0.0067 -0.9532,0.20735 -3.7303,1.36244 z"
     fill="#ffffff"
     id="path2" />
</svg>
